<svg id="Layer_1" data-name="Layer 1" xmlns="http://www.w3.org/2000/svg" viewBox="0 0 600.65 100.09"><defs><style>.cls-1{fill:#202121;}</style></defs><title>Code-quiz-logo</title><path class="cls-1" d="M78.22,25.51l1-1.05,1.14,1.14a1.42,1.42,0,0,0,2-2l-4.82-4.82a1.44,1.44,0,0,0-2,0,1.42,1.42,0,0,0-.41,1,1.47,1.47,0,0,0,.41,1l1.14,1.14-1,1A44.43,44.43,0,0,0,48.81,10.69V6.39h3.63a3.2,3.2,0,0,0,3.18-3.2A3.11,3.11,0,0,0,54.68.94,3.1,3.1,0,0,0,52.44,0H37.16A3.19,3.19,0,0,0,34,3.19a3.23,3.23,0,0,0,.94,2.26,3.15,3.15,0,0,0,2.25.94h3.61v4.3A44.82,44.82,0,1,0,78.22,25.51Zm1.41,48.28-2-1.15-1.4,2.43,2,1.14A39.5,39.5,0,0,1,65.7,88.73l-1.14-2-2.43,1.4,1.15,2A38.92,38.92,0,0,1,46.19,94.7V92.41h-2.8V94.7A39.05,39.05,0,0,1,26.3,90.13l1.15-2L25,86.75l-1.14,2A39.5,39.5,0,0,1,11.36,76.21l2-1.14-1.4-2.43-2,1.15A38.92,38.92,0,0,1,5.39,56.7H7.68V53.9H5.39A38.92,38.92,0,0,1,10,36.82l2,1.14,1.4-2.43-2-1.14A39.73,39.73,0,0,1,23.88,21.86l1.14,2,2.43-1.4-1.15-2a39.48,39.48,0,0,1,14.47-4.4c.87-.09,1.74-.15,2.62-.17v2.3h2.8v-2.3c.88,0,1.75.08,2.62.17a39.25,39.25,0,0,1,14.47,4.4l-1.15,2,2.43,1.4,1.14-2A39.94,39.94,0,0,1,78.24,34.37l-2,1.16L77.64,38l2-1.16a39.12,39.12,0,0,1,4.56,17.1H81.9v2.8h2.29A39,39,0,0,1,79.63,73.79Z"/><path class="cls-1" d="M66,69a21.91,21.91,0,0,1-1.32,6.32,9,9,0,0,1-2.77,4,8.66,8.66,0,0,1-3.1,1.45,14.77,14.77,0,0,1-3.89.51,21.18,21.18,0,0,1-6.65-1.07A83.29,83.29,0,0,1,40,76.91l-3.7-1.57A5.53,5.53,0,0,0,35,75a12.49,12.49,0,0,1-2.37,1,8,8,0,0,1-2.32.4,3.81,3.81,0,0,1-1.91-.42,1.37,1.37,0,0,1-.72-1.26,1.42,1.42,0,0,1,.78-1.29,4.66,4.66,0,0,1,2.29-.45,10.66,10.66,0,0,1,4.25,1,25.76,25.76,0,0,0,4.2-1.51q.49-.17,1.14-.45c.43-.18.93-.37,1.49-.56a22.51,22.51,0,0,1-9.65-3.07,17,17,0,0,1-6.35-6.88,22,22,0,0,1-2.24-10.18,21.81,21.81,0,0,1,2.69-10.91A18.79,18.79,0,0,1,33.77,33a22.52,22.52,0,0,1,11-2.63,24.15,24.15,0,0,1,11.08,2.41,17.34,17.34,0,0,1,7.38,7,21.46,21.46,0,0,1,2.63,10.88,22.07,22.07,0,0,1-2.57,10.74A18.63,18.63,0,0,1,56,68.71,22.41,22.41,0,0,1,45.4,71.54a12.93,12.93,0,0,0-2.48.56c-.81.26-1.56.53-2.27.83A33.68,33.68,0,0,1,37,74.22l2.18.06q4.81.16,8.17.16a47.55,47.55,0,0,0,9.51-.78,17.08,17.08,0,0,0,4.92-1.73,10,10,0,0,0,3.18-3.19ZM36.63,61.3a17.09,17.09,0,0,0,3.46,6.82,6.42,6.42,0,0,0,4.81,2.41A6.2,6.2,0,0,0,49.74,68a17.21,17.21,0,0,0,3.22-7,42.77,42.77,0,0,0,1.11-10.24,37,37,0,0,0-1.28-10.23,17.34,17.34,0,0,0-3.47-6.83,6.42,6.42,0,0,0-4.81-2.4,6.2,6.2,0,0,0-4.84,2.49,17.08,17.08,0,0,0-3.21,7,42.18,42.18,0,0,0-1.12,10.24A36.6,36.6,0,0,0,36.63,61.3Z"/><path class="cls-1" d="M203.49,22.34h-1a.39.39,0,0,1-.28-.1A.55.55,0,0,1,202,22L200,16.86h-8.68L189.19,22a.56.56,0,0,1-.17.24.54.54,0,0,1-.3.1h-1L195,4.65h1.27Zm-11.84-6.43h7.93L196,7q-.09-.21-.18-.48c-.06-.18-.11-.37-.17-.57l-.18.57c-.06.18-.11.35-.17.5Z"/><path class="cls-1" d="M233.68,13.49a10.41,10.41,0,0,1-.61,3.68A8,8,0,0,1,231.34,20a7.32,7.32,0,0,1-2.66,1.76,9.24,9.24,0,0,1-3.44.62h-6.45V4.65h6.45a9.24,9.24,0,0,1,3.44.61A7.59,7.59,0,0,1,231.34,7a8.08,8.08,0,0,1,1.73,2.79A10.41,10.41,0,0,1,233.68,13.49Zm-1.33,0a9.86,9.86,0,0,0-.51-3.3,6.82,6.82,0,0,0-1.44-2.45,6.08,6.08,0,0,0-2.25-1.53,7.73,7.73,0,0,0-2.91-.52h-5.16V21.3h5.16a7.73,7.73,0,0,0,2.91-.53,6.06,6.06,0,0,0,2.25-1.52,6.91,6.91,0,0,0,1.44-2.45A10,10,0,0,0,232.35,13.49Z"/><path class="cls-1" d="M263.23,22.34h-1a.41.41,0,0,1-.29-.1.61.61,0,0,1-.17-.24l-2.09-5.14H251L248.93,22a.51.51,0,0,1-.18.24.49.49,0,0,1-.3.1h-1l7.24-17.69H256Zm-11.84-6.43h7.93L255.7,7c0-.14-.11-.3-.17-.48l-.18-.57c0,.2-.11.39-.17.57s-.12.35-.18.5Z"/><path class="cls-1" d="M287.35,17.94c0-.14.11-.27.16-.4a2.53,2.53,0,0,1,.18-.37l6.95-12.28c.07-.11.13-.18.2-.2a.72.72,0,0,1,.28,0H296V22.34h-1.12V7.26a5.64,5.64,0,0,1,0-.69l-7,12.37a.54.54,0,0,1-.5.32h-.2a.59.59,0,0,1-.5-.32L279.6,6.56a5.69,5.69,0,0,1,0,.7V22.34h-1.11V4.65h.87a.81.81,0,0,1,.29,0c.07,0,.13.09.2.2L287,17.19A5.13,5.13,0,0,1,287.35,17.94Z"/><path class="cls-1" d="M343.93,19.36a.29.29,0,0,1,.21.09l.5.54a8.52,8.52,0,0,1-1.2,1.05,7.55,7.55,0,0,1-1.42.8,8.16,8.16,0,0,1-1.69.51,9.67,9.67,0,0,1-2,.19,8.58,8.58,0,0,1-3.37-.65,7.61,7.61,0,0,1-2.63-1.82,8.24,8.24,0,0,1-1.7-2.86,10.75,10.75,0,0,1-.62-3.72,10.34,10.34,0,0,1,.63-3.68A8.46,8.46,0,0,1,332.41,7a7.83,7.83,0,0,1,2.74-1.86,9.27,9.27,0,0,1,3.52-.65,10.64,10.64,0,0,1,1.76.14,8.34,8.34,0,0,1,1.49.42,7,7,0,0,1,1.31.66,10.19,10.19,0,0,1,1.2.93l-.39.56a.35.35,0,0,1-.31.15.51.51,0,0,1-.29-.13L343,6.85c-.18-.12-.4-.27-.65-.42a5.15,5.15,0,0,0-.91-.42,7.75,7.75,0,0,0-1.21-.33,8.19,8.19,0,0,0-1.56-.13,7.74,7.74,0,0,0-3,.55,6.85,6.85,0,0,0-2.32,1.59,7.23,7.23,0,0,0-1.52,2.5,9.52,9.52,0,0,0-.54,3.3,10,10,0,0,0,.53,3.35,7.34,7.34,0,0,0,1.49,2.49,6.38,6.38,0,0,0,2.24,1.56,7.08,7.08,0,0,0,2.81.55,9.52,9.52,0,0,0,1.69-.13,6.68,6.68,0,0,0,1.37-.37,5.93,5.93,0,0,0,1.17-.62,8.77,8.77,0,0,0,1.06-.85l.12-.08A.25.25,0,0,1,343.93,19.36Z"/><path class="cls-1" d="M362.44,21.25h8.39v1.09h-9.66V4.65h1.27Z"/><path class="cls-1" d="M397.05,4.65V5.71h-9.31v7.15h7.75v1h-7.75v7.37h9.31v1.07h-10.6V4.65Z"/><path class="cls-1" d="M415,21.25h8.39v1.09h-9.66V4.65H415Z"/><path class="cls-1" d="M452.33,22.34h-1a.41.41,0,0,1-.29-.1.61.61,0,0,1-.17-.24l-2.09-5.14H440.1L438,22a.59.59,0,0,1-.18.24.49.49,0,0,1-.3.1h-1l7.23-17.69h1.28Zm-11.84-6.43h7.93L444.8,7c-.06-.14-.11-.3-.17-.48l-.18-.57c-.06.2-.11.39-.17.57s-.12.35-.18.5Z"/><path class="cls-1" d="M468.53,4.69a.75.75,0,0,1,.21.2l11.45,15.32a6,6,0,0,1,0-.72V4.65h1.13V22.34h-.62a.56.56,0,0,1-.46-.25L468.7,6.74a5.85,5.85,0,0,1,0,.71V22.34h-1.11V4.65h.62A.72.72,0,0,1,468.53,4.69Z"/><path class="cls-1" d="M513.92,13.49a10.4,10.4,0,0,1-.62,3.68A8,8,0,0,1,511.58,20a7.41,7.41,0,0,1-2.66,1.76,9.28,9.28,0,0,1-3.44.62H499V4.65h6.45a9.28,9.28,0,0,1,3.44.61A7.68,7.68,0,0,1,511.58,7a8.06,8.06,0,0,1,1.72,2.79A10.4,10.4,0,0,1,513.92,13.49Zm-1.33,0a9.86,9.86,0,0,0-.51-3.3,6.84,6.84,0,0,0-1.45-2.45,6.13,6.13,0,0,0-2.24-1.53,7.81,7.81,0,0,0-2.91-.52h-5.17V21.3h5.17a7.81,7.81,0,0,0,2.91-.53,6.1,6.1,0,0,0,2.24-1.52,6.93,6.93,0,0,0,1.45-2.45A10,10,0,0,0,512.59,13.49Z"/><path class="cls-1" d="M121.27,86.68h-9.61V43.32h-9.92V34.85H131.2v8.47h-9.93Z"/><path class="cls-1" d="M138.46,86.68V34.85h9.08V86.68Z"/><path class="cls-1" d="M177,86.68l-9.86-44.14h-.39a72.07,72.07,0,0,1,.68,9.36V86.68h-8.94V34.85h14.82l8.86,40.73h.29l8.79-40.73h15V86.68h-9.15V51.55a83.13,83.13,0,0,1,.5-8.94h-.28l-9.82,44.07Z"/><path class="cls-1" d="M238.79,86.68H215.42V34.85h23.37v8.33H225.07V55.52h12.72v8.36H225.07V78.24h13.72Z"/><path class="cls-1" d="M279.3,60.27q0,12.82-5.22,19.62T259,86.68H246.34V34.85H260.2q9,0,14.07,6.68T279.3,60.27Zm-9.89.28q0-17.37-9.57-17.37H256V78.24h3.12a8.37,8.37,0,0,0,7.8-4.41Q269.4,69.41,269.41,60.55Z"/><path class="cls-1" d="M322,42.54q-4.14,0-6.54,4.86t-2.39,13.51q0,18,9.4,18a17.12,17.12,0,0,0,8.61-2.62v8.58a17.23,17.23,0,0,1-9.71,2.52,15.29,15.29,0,0,1-13.46-7q-4.69-7-4.69-19.59T308,41.16a15.41,15.41,0,0,1,13.45-7,18.88,18.88,0,0,1,5.44.78,21.63,21.63,0,0,1,5.58,2.73l-3.19,7.83a27.6,27.6,0,0,0-3.4-2A8.61,8.61,0,0,0,322,42.54Z"/><path class="cls-1" d="M373,60.69q0,12.87-4.82,19.78t-13.79,6.92q-9,0-13.83-6.9T335.7,60.62q0-12.87,4.82-19.72T354.42,34q9,0,13.75,6.89T373,60.69Zm-27.4,0q0,8.86,2.23,13.51c1.49,3.1,3.68,4.64,6.56,4.64q8.72,0,8.72-18.15t-8.65-18.15c-2.93,0-5.14,1.55-6.63,4.63S345.56,54.76,345.56,60.69Z"/><path class="cls-1" d="M413.48,60.27q0,12.82-5.23,19.62T393.2,86.68H380.51V34.85h13.86q9,0,14.08,6.68T413.48,60.27Zm-9.89.28q0-17.37-9.57-17.37h-3.87V78.24h3.12a8.37,8.37,0,0,0,7.8-4.41Q403.59,69.41,403.59,60.55Z"/><path class="cls-1" d="M444.39,86.68H421V34.85h23.36v8.33H430.67V55.52H443.4v8.36H430.67V78.24h13.72Z"/><path class="cls-1" d="M505.54,60.69a42,42,0,0,1-2.36,15,18.38,18.38,0,0,1-7,9.15L505.75,99H494.62l-7.16-11.62h-.53q-9,0-13.83-6.9t-4.82-19.87q0-12.87,4.82-19.72T487,34q9,0,13.75,6.89T505.54,60.69Zm-27.4,0q0,8.86,2.23,13.51c1.49,3.1,3.68,4.64,6.56,4.64q8.71,0,8.72-18.15T487,42.54c-2.93,0-5.14,1.55-6.63,4.63S478.14,54.76,478.14,60.69Z"/><path class="cls-1" d="M545,34.85V68.39q0,9.24-4.18,14.12t-12.09,4.88q-7.73,0-11.77-4.84t-4-14.31V34.85h9.57V69q0,9.9,6.56,9.89a5.34,5.34,0,0,0,4.71-2.51,13,13,0,0,0,1.67-7.16V34.85Z"/><path class="cls-1" d="M555.63,86.68V34.85h9.08V86.68Z"/><path class="cls-1" d="M600.65,86.68h-28V79.94l16.56-36.69H573.11v-8.4h27v6.74L583.56,78.24h17.09Z"/><rect class="cls-1" x="101" y="4.19" width="80" height="3.98"/><rect class="cls-1" x="101" y="11.05" width="80" height="3.98"/><rect class="cls-1" x="101" y="17.91" width="80" height="3.98"/><rect class="cls-1" x="517.89" y="4.19" width="80" height="3.98"/><rect class="cls-1" x="517.89" y="11.05" width="80" height="3.98"/><rect class="cls-1" x="517.89" y="17.91" width="80" height="3.98"/></svg>