<svg id="Layer_1" data-name="Layer 1" xmlns="http://www.w3.org/2000/svg" viewBox="0 0 100 100"><defs><style>.cls-1{fill:#202121;}</style></defs><title>Icon</title><path class="cls-1" d="M50,8.66l10.24,9.28,10.93,9.9V12.64h5.29V33.2l2.27,2.09,9.73,8.93a8.56,8.56,0,0,0-7.15,8.61V93H63.82V75.18a8.48,8.48,0,0,0-8.24-8.69H44.41a8.47,8.47,0,0,0-8.23,8.69V93H18.68V52.83a8.55,8.55,0,0,0-7.14-8.61l9.72-8.93,0,0,0,0L39.8,17.9,50,8.66M50,0a1.61,1.61,0,0,0-1.06.41L35.44,12.64,16.92,30,2.27,43.47l-.1.1c-4,4.24-1.48,6.57-.39,7.3a1.54,1.54,0,0,0,.86.25h7.81a1.67,1.67,0,0,1,1.62,1.71V98.29A1.67,1.67,0,0,0,13.69,100H41.17a1.67,1.67,0,0,0,1.62-1.71V75.18a1.67,1.67,0,0,1,1.62-1.71H55.58a1.66,1.66,0,0,1,1.62,1.71V98.29A1.67,1.67,0,0,0,58.82,100H86.31a1.67,1.67,0,0,0,1.62-1.71V52.83a1.67,1.67,0,0,1,1.62-1.71h7.81a1.54,1.54,0,0,0,.86-.25c1.09-.73,3.59-3.06-.39-7.3l-.1-.1L83.08,30V9.34a1.94,1.94,0,0,0,0-.24c-.09-.66-.64-3.44-3.36-3.44H69.12a5.19,5.19,0,0,0-3.59,1.41,2.7,2.7,0,0,0-1,1.85v3.72L51.05.41A1.58,1.58,0,0,0,50,0Z"/></svg>