<svg id="Layer_1" data-name="Layer 1" xmlns="http://www.w3.org/2000/svg" viewBox="0 0 100 100"><defs><style>.cls-1{fill:#f9fcfd;}</style></defs><title>Icon-White</title><path class="cls-1" d="M71.18,69a21.84,21.84,0,0,1-1.32,6.31,9,9,0,0,1-2.76,4A8.66,8.66,0,0,1,64,80.69a14.77,14.77,0,0,1-3.89.5,21.22,21.22,0,0,1-6.65-1.06,84.27,84.27,0,0,1-8.21-3.29l-3.69-1.57a5.66,5.66,0,0,0-1.34-.39,12.52,12.52,0,0,1-2.37,1,7.88,7.88,0,0,1-2.32.39,3.74,3.74,0,0,1-1.9-.42,1.36,1.36,0,0,1-.73-1.26,1.39,1.39,0,0,1,.78-1.28A4.68,4.68,0,0,1,36,72.87a10.63,10.63,0,0,1,4.25,1,25.61,25.61,0,0,0,4.19-1.5c.34-.12.72-.26,1.15-.45s.92-.37,1.48-.56a22.6,22.6,0,0,1-9.64-3.07,17,17,0,0,1-6.34-6.88,22,22,0,0,1-2.24-10.17A21.84,21.84,0,0,1,31.5,40.35,18.79,18.79,0,0,1,39,33a22.5,22.5,0,0,1,10.95-2.62A24.26,24.26,0,0,1,61,32.75a17.41,17.41,0,0,1,7.37,7A21.42,21.42,0,0,1,71,50.57,22,22,0,0,1,68.44,61.3a18.6,18.6,0,0,1-7.21,7.35,22.25,22.25,0,0,1-10.62,2.82,13.72,13.72,0,0,0-2.48.56c-.8.26-1.56.54-2.26.84a36.35,36.35,0,0,1-3.69,1.28l2.18.06q4.8.17,8.15.17A47.23,47.23,0,0,0,62,73.6a16.56,16.56,0,0,0,4.92-1.74,10.05,10.05,0,0,0,3.19-3.18ZM41.84,61.25a17.12,17.12,0,0,0,3.47,6.81,6.38,6.38,0,0,0,4.8,2.41A6.2,6.2,0,0,0,55,68a17.34,17.34,0,0,0,3.21-7A42.57,42.57,0,0,0,59.28,50.8,36.56,36.56,0,0,0,58,40.57a17.36,17.36,0,0,0-3.46-6.82,6.44,6.44,0,0,0-4.81-2.4,6.18,6.18,0,0,0-4.83,2.49,17.16,17.16,0,0,0-3.22,6.95A42.68,42.68,0,0,0,40.56,51,36.63,36.63,0,0,0,41.84,61.25Z"/><path class="cls-1" d="M99.4,53.82a2,2,0,0,0-1.43-.6H94.7A44.45,44.45,0,0,0,83.4,25.49l1-1,1.14,1.14a1.42,1.42,0,0,0,2.42-1,1.38,1.38,0,0,0-.41-1l-4.81-4.82a1.42,1.42,0,0,0-2.43,1,1.47,1.47,0,0,0,.41,1l1.14,1.14-1,1A44.4,44.4,0,0,0,54,10.68V6.38h3.63a3.19,3.19,0,0,0,3.18-3.2A3.1,3.1,0,0,0,59.88.94,3.1,3.1,0,0,0,57.64,0H42.37a3.19,3.19,0,0,0-3.18,3.18,3.15,3.15,0,0,0,.94,2.26,3.1,3.1,0,0,0,2.24.94H46v4.3A44.76,44.76,0,0,0,5.29,53.22H2a2,2,0,0,0-1.43.6A2,2,0,0,0,0,55.25a2,2,0,0,0,2,2H5.3a44.75,44.75,0,0,0,89.4,0H98a2,2,0,0,0,2-2A2,2,0,0,0,99.4,53.82Zm-10,2.83A39,39,0,0,1,84.8,73.73l-2-1.16L81.42,75l2,1.14A39.33,39.33,0,0,1,70.89,88.65l-1.14-2-2.43,1.4,1.16,2A39,39,0,0,1,51.4,94.62V92.33H48.6v2.29a39.28,39.28,0,0,1-17.08-4.57l1.15-2-2.43-1.4-1.13,2A39.46,39.46,0,0,1,16.59,76.14l2-1.14-1.4-2.43-2,1.16a39,39,0,0,1-4.56-17.08h2.29v-2.8H10.63a38.87,38.87,0,0,1,4.58-17.06l2,1.13,1.4-2.42-2-1.14A39.8,39.8,0,0,1,29.11,21.84l1.13,2,2.43-1.4-1.15-2A39,39,0,0,1,46,16.05c.86-.09,1.73-.15,2.61-.17v2.29h2.8V15.88c.87,0,1.75.08,2.61.17a38.93,38.93,0,0,1,14.47,4.4l-1.16,2,2.43,1.4,1.14-2a39.88,39.88,0,0,1,12.53,12.5l-2,1.16,1.4,2.42,2-1.15a39,39,0,0,1,4.57,17.08H87.08v2.8Z"/></svg>