<svg id="Layer_1" data-name="Layer 1" xmlns="http://www.w3.org/2000/svg" viewBox="0 0 100 100"><defs><style>.cls-1{fill:#202121;}</style></defs><title>Icon</title><path class="cls-1" d="M91.06,7.84A1.94,1.94,0,0,1,93,9.78V91.9a1.94,1.94,0,0,1-1.94,1.94H8.94A1.94,1.94,0,0,1,7,91.9V9.78A1.94,1.94,0,0,1,8.94,7.84H91.06m0-7H8.94A8.94,8.94,0,0,0,0,9.78V91.9a8.94,8.94,0,0,0,8.94,8.94H91.06A8.94,8.94,0,0,0,100,91.9V9.78A8.94,8.94,0,0,0,91.06.84Z"/><circle class="cls-1" cx="50" cy="26.12" r="9.83"/><path class="cls-1" d="M66,54.28H34a27.89,27.89,0,0,1,3-12.72,44,44,0,0,1,4.21-6.63A.45.45,0,0,1,42,35a7,7,0,0,0,2.67,2.85,10,10,0,0,0,10.7,0A7.14,7.14,0,0,0,58,35a.44.44,0,0,1,.75-.09A42.44,42.44,0,0,1,63,41.56,27.77,27.77,0,0,1,66,54.28Z"/><rect class="cls-1" x="16.13" y="59.62" width="67.74" height="5.04"/><rect class="cls-1" x="16.13" y="69.99" width="67.74" height="5.04"/><rect class="cls-1" x="16.13" y="80.36" width="67.74" height="5.04"/></svg>